<svg width="16" height="16" viewBox="0 0 16 16" fill="none" xmlns="http://www.w3.org/2000/svg">
<path d="M8.77243 0.48035L10.577 4.13692C10.7025 4.39124 10.9451 4.56746 11.2258 4.60818L15.2612 5.19458C15.9681 5.29737 16.2501 6.16579 15.7388 6.66408L12.8188 9.51031C12.6159 9.70822 12.5231 9.99358 12.5712 10.2729L13.2604 14.2919C13.3812 14.9958 12.6423 15.5325 12.0101 15.2004L8.40097 13.303C8.14999 13.1712 7.84994 13.1712 7.59896 13.303L3.98978 15.2004C3.35766 15.5328 2.61874 14.9958 2.73955 14.2919L3.42875 10.2729C3.47681 9.99358 3.38403 9.70822 3.18111 9.51031L0.261123 6.66408C-0.250182 6.16546 0.0318366 5.29704 0.73872 5.19458L4.7741 4.60818C5.05478 4.56746 5.29742 4.39124 5.42291 4.13692L7.2275 0.48035C7.54323 -0.160117 8.45637 -0.160117 8.77243 0.48035Z" fill="#F9D4AB"/>
</svg>
